<svg width="48" height="106" viewBox="0 0 48 106" fill="none" xmlns="http://www.w3.org/2000/svg">
<path d="M41.246 43.4192C41.246 44.4952 41.0308 45.4637 40.6004 46.3245C40.17 47.1853 39.5916 47.9251 38.8653 48.5438C38.139 49.1357 37.2916 49.6064 36.3231 49.9561C35.3547 50.2789 34.3325 50.4404 33.2564 50.4404C32.019 50.4404 30.9564 50.2924 30.0687 49.9965C29.2078 49.7006 28.4681 49.324 27.8493 48.8666C27.2575 48.3824 26.7868 47.8579 26.437 47.2929C26.0873 46.7011 25.8049 46.1362 25.5897 45.5982C25.4014 45.0602 25.2803 44.5625 25.2265 44.1052C25.1727 43.6479 25.1458 43.2982 25.1458 43.056C25.3879 43.5134 25.6973 43.7958 26.0739 43.9034C26.4505 44.011 26.7464 44.0648 26.9616 44.0648C27.5803 44.0648 28.0242 43.9034 28.2932 43.5806C28.5622 43.2578 28.6967 42.9215 28.6967 42.5718C28.6967 42.3566 28.6429 42.1145 28.5353 41.8455C28.4277 41.5765 28.2394 41.3344 27.9704 41.1192C27.7014 40.8771 27.3517 40.6753 26.9213 40.5139C26.4908 40.3525 25.9528 40.2718 25.3072 40.2718C24.9037 40.2718 24.4733 40.3525 24.016 40.5139C23.5586 40.6753 23.1417 40.9309 22.7651 41.2806C22.4154 41.6034 22.1194 42.0204 21.8773 42.5315C21.6352 43.0157 21.5142 43.5806 21.5142 44.2262C21.5142 45.4368 21.8235 46.459 22.4423 47.2929C23.061 48.1269 23.868 48.8666 24.8633 49.5123C25.8856 50.131 27.0289 50.7094 28.2932 51.2474C29.5845 51.7854 30.9026 52.3503 32.2476 52.9421C33.5927 53.5071 34.8974 54.1527 36.1617 54.879C37.453 55.5784 38.5963 56.4393 39.5916 57.4615C40.6138 58.4837 41.4343 59.7077 42.053 61.1335C42.6718 62.5592 42.9811 64.254 42.9811 66.2178C42.9811 68.7195 42.47 70.9792 41.4478 72.9968C40.4255 75.0144 39.0536 76.7495 37.3319 78.2021C35.6372 79.6279 33.6599 80.7174 31.4003 81.4706C29.1406 82.2507 26.7599 82.6408 24.2581 82.6408C21.9715 82.6408 19.806 82.3314 17.7615 81.7127C15.717 81.094 13.9281 80.2331 12.3948 79.1302C10.8614 78.0273 9.63741 76.7226 8.72278 75.2161C7.83505 73.7097 7.39118 72.0822 7.39118 70.3336C7.39118 69.0154 7.60639 67.8722 8.03681 66.9037C8.46722 65.9084 9.05904 65.0879 9.81227 64.4423C10.5924 63.7967 11.4936 63.3124 12.5158 62.9896C13.5649 62.6668 14.6948 62.5054 15.9053 62.5054C16.7931 62.5054 17.6808 62.5996 18.5685 62.7879C19.4563 62.9762 20.2902 63.2586 21.0703 63.6353C21.8504 64.0119 22.5499 64.4692 23.1686 65.0072C23.7873 65.5452 24.285 66.1639 24.6616 66.8634C24.4464 66.8096 24.2312 66.7692 24.016 66.7423C23.8277 66.7154 23.6259 66.702 23.4107 66.702C22.8189 66.702 22.3481 66.8634 21.9984 67.1862C21.6756 67.4821 21.5142 67.9798 21.5142 68.6792C21.5142 69.4324 21.8235 70.0646 22.4423 70.5757C23.061 71.0868 23.747 71.3424 24.5002 71.3424C24.9306 71.3424 25.3341 71.2482 25.7107 71.0599C26.0873 70.8716 26.4101 70.6295 26.6792 70.3336C26.9482 70.0108 27.1499 69.6611 27.2844 69.2845C27.4458 68.9078 27.5265 68.5178 27.5265 68.1143C27.5265 67.4148 27.2844 66.6616 26.8002 65.8546C26.3429 65.0476 25.6838 64.375 24.823 63.837C23.1282 62.7879 21.5276 61.8867 20.0212 61.1335C18.5147 60.3802 17.1293 59.6674 15.865 58.9948C14.6006 58.3223 13.4573 57.6498 12.4351 56.9773C11.4398 56.3048 10.5924 55.5246 9.89297 54.6369C9.19355 53.7223 8.65553 52.6597 8.27891 51.4491C7.9023 50.2117 7.71399 48.7187 7.71399 46.9701C7.71399 44.8988 8.11751 42.9888 8.92454 41.2402C9.75847 39.4648 10.9421 37.9314 12.4755 36.6402C14.0088 35.3489 15.8919 34.3401 18.1247 33.6138C20.3574 32.8606 22.8861 32.484 25.7107 32.484C28.5891 32.484 31.0102 32.8202 32.974 33.4928C34.9646 34.1653 36.5652 35.0261 37.7758 36.0753C39.0132 37.1244 39.901 38.2946 40.439 39.5858C40.977 40.8771 41.246 42.1549 41.246 43.4192Z" fill="#263238"/>
<path d="M2.04615 81.0804C7.51382 76.1414 17.7748 79.2398 24.2624 79.7919C30.6006 80.3311 36.7682 77.3563 39.2698 72.2655C36.2048 74.0296 31.6075 74.8621 25.3267 73.8603C12.6215 71.8335 8.848 74.0372 8.848 74.0372C8.848 74.0372 10.5933 70.9073 25.5528 72.2638C38.372 73.4261 40.2452 66.4918 38.7207 64.425C35.8581 66.8923 31.9294 67.5088 26.2818 65.8594C11.512 61.5462 2.58953 69.1632 2.04615 81.0804Z" fill="#19C078"/>
<path d="M39.7137 71.8244C44.9144 68.6191 45.7477 60.6075 40.2959 56.8471C34.2482 52.6759 29.0514 60.0163 33.1334 63.3115C33.414 60.3356 37.0223 59.193 39.7484 61.006C41.0815 61.8927 43.8283 65.8374 39.7137 71.8244Z" fill="#19C078"/>
</svg>
