<svg width="32" height="32" viewBox="0 0 32 32" fill="none" xmlns="http://www.w3.org/2000/svg">
<path d="M15.9973 9.50403C14.7123 9.50451 13.4563 9.88594 12.3882 10.6001C11.32 11.3142 10.4875 12.329 9.99612 13.5162C9.50472 14.7033 9.37639 16.0095 9.62737 17.2695C9.87836 18.5296 10.4974 19.6869 11.4062 20.5952C12.315 21.5036 13.4727 22.1221 14.733 22.3725C15.9934 22.623 17.2997 22.4942 18.4868 22.0024C19.6739 21.5106 20.6886 20.678 21.4024 19.6097C22.1163 18.5414 22.4973 17.2854 22.4973 16.0006C22.496 14.2776 21.8107 12.6255 20.5919 11.4074C19.3731 10.1893 17.7206 9.50467 15.9973 9.50403ZM31.1887 4.51041C30.8579 3.67226 30.3584 2.91101 29.7212 2.27388C29.0839 1.63675 28.3226 1.13733 27.4843 0.8066C24.9262 -0.203086 18.8356 0.0234542 15.9973 0.0234542C13.1591 0.0234542 7.07449 -0.211611 4.5091 0.8066C3.67083 1.13733 2.90947 1.63675 2.27225 2.27388C1.63502 2.91101 1.13553 3.67226 0.804755 4.51041C-0.203859 7.06811 0.0214961 13.164 0.0214961 15.9994C0.0214961 18.8348 -0.203858 24.9234 0.809629 27.4896C1.1404 28.3277 1.6399 29.089 2.27712 29.7261C2.91434 30.3632 3.6757 30.8627 4.51397 31.1934C7.07205 32.2031 13.1627 31.9765 16.0022 31.9765C18.8417 31.9765 24.9238 32.2116 27.4892 31.1934C28.3275 30.8627 29.0888 30.3632 29.726 29.7261C30.3633 29.089 30.8628 28.3277 31.1935 27.4896C32.2107 24.9319 31.9768 18.836 31.9768 16.0006C31.9768 13.1652 32.2107 7.07786 31.1935 4.51162L31.1887 4.51041ZM15.9973 25.9878C14.0217 25.9878 12.0905 25.4021 10.4479 24.3047C8.80526 23.2073 7.52499 21.6475 6.76897 19.8226C6.01295 17.9976 5.81514 15.9895 6.20055 14.0522C6.58597 12.1149 7.5373 10.3353 8.93424 8.93856C10.3312 7.54182 12.111 6.59063 14.0486 6.20527C15.9862 5.81991 17.9946 6.01769 19.8198 6.7736C21.645 7.52951 23.205 8.8096 24.3026 10.452C25.4002 12.0944 25.986 14.0253 25.986 16.0006C25.9876 17.3126 25.7303 18.612 25.2289 19.8245C24.7275 21.0369 23.9918 22.1385 23.064 23.0662C22.1361 23.9939 21.0343 24.7295 19.8217 25.2309C18.6091 25.7322 17.3095 25.9894 15.9973 25.9878ZM26.3977 7.92556C25.9366 7.9258 25.4857 7.78928 25.1021 7.53328C24.7185 7.27727 24.4195 6.91328 24.2428 6.48733C24.0662 6.06139 24.0198 5.59263 24.1097 5.14035C24.1995 4.68806 24.4214 4.27257 24.7475 3.94643C25.0735 3.62029 25.4889 3.39815 25.9412 3.3081C26.3935 3.21805 26.8624 3.26415 27.2885 3.44055C27.7146 3.61696 28.0788 3.91575 28.335 4.29913C28.5913 4.68252 28.728 5.13327 28.728 5.59439C28.7293 5.9006 28.6701 6.20405 28.5538 6.48733C28.4376 6.77062 28.2665 7.02816 28.0505 7.2452C27.8344 7.46223 27.5776 7.63448 27.2949 7.75207C27.0121 7.86966 26.7089 7.93027 26.4026 7.93043L26.3977 7.92556Z" fill="#19C078"/>
</svg>
