<svg width="503" height="490" viewBox="0 0 503 490" fill="none" xmlns="http://www.w3.org/2000/svg">
<path d="M73.6554 446.533C171.844 504.489 331.059 504.489 429.259 446.533C527.458 388.578 527.458 294.612 429.259 236.668C331.059 178.723 171.844 178.712 73.6445 236.668C-24.5554 294.623 -24.5445 388.61 73.6554 446.533Z" fill="#EAEAEA"/>
<path d="M403.153 434.385C429.72 434.385 451.257 421.952 451.257 406.616C451.257 391.279 429.72 378.846 403.153 378.846C376.586 378.846 355.049 391.279 355.049 406.616C355.049 421.952 376.586 434.385 403.153 434.385Z" fill="#E0E0E0"/>
<path d="M372.979 49.1292L381.328 53.9515C381.283 53.5904 381.257 53.227 381.252 52.863V50.4246C381.252 46.0703 384.278 44.3721 388.001 46.5275C389.605 47.5126 390.978 48.8304 392.029 50.3919C392.639 44.9491 396.884 42.9679 402.044 45.9397C407.617 49.2054 412.135 56.9886 412.135 63.433V67.047C412.172 68.4902 411.881 69.923 411.286 71.238L418.209 75.244C419.305 75.9588 420.216 76.9236 420.867 78.059C421.518 79.1944 421.891 80.4681 421.954 81.7754C421.954 84.1594 420.277 85.1282 418.209 83.9525L372.979 57.8268C371.883 57.112 370.972 56.1472 370.321 55.0118C369.67 53.8764 369.297 52.6027 369.234 51.2954C369.256 48.9006 370.911 47.8882 372.979 49.1292Z" fill="white"/>
<path d="M337.252 73.4477L343.555 77.0835C343.521 76.809 343.503 76.5328 343.501 76.2562V74.4274C343.501 71.1617 345.787 69.8663 348.595 71.4883C349.807 72.2291 350.843 73.2245 351.632 74.4056C352.089 70.3235 355.29 68.7995 359.187 71.042C361.405 72.4891 363.252 74.4389 364.575 76.7331C365.899 79.0274 366.664 81.6014 366.807 84.2463V86.9786C366.836 88.0661 366.616 89.1458 366.165 90.1355L371.39 93.1617C372.213 93.6963 372.898 94.4176 373.39 95.2668C373.882 96.1161 374.166 97.0695 374.22 98.0494C374.22 99.8564 372.957 100.586 371.39 99.6822L337.252 79.9682C336.432 79.4358 335.749 78.718 335.257 77.8727C334.765 77.0275 334.479 76.0785 334.422 75.1023C334.422 73.2735 335.696 72.5442 337.252 73.4477Z" fill="white"/>
<path d="M57.7952 279.34C57.1747 279.677 45.821 282.91 41.5755 277.337C37.3301 271.763 44.3514 263.087 40.3999 259.92C36.4484 256.752 25.3667 259.92 22.6997 253.203C20.0327 246.487 27.9357 243.569 23.4944 236.788C20.6968 232.52 13.817 230.126 13.2074 226.174C12.2059 219.577 23.1352 216.54 32.4969 222.778C41.8586 229.015 47.5082 226.152 50.48 225.728C53.4518 225.303 59.8417 226.239 59.6349 236.613C59.4281 246.987 57.7952 279.34 57.7952 279.34Z" fill="#19C078"/>
<path d="M58.5467 264.514C58.3991 264.515 58.2559 264.463 58.1437 264.367C58.0316 264.271 57.9582 264.137 57.9371 263.991C54.6714 244.223 31.6917 228.123 19.7392 224.672C19.5804 224.627 19.4459 224.521 19.3653 224.377C19.2846 224.233 19.2645 224.063 19.3092 223.904C19.354 223.746 19.46 223.611 19.6039 223.531C19.7478 223.45 19.9179 223.43 20.0767 223.474C32.3013 227.012 55.8144 243.504 59.1563 263.752C59.1815 263.913 59.1418 264.078 59.046 264.211C58.9502 264.343 58.806 264.432 58.6447 264.459L58.5467 264.514Z" fill="white"/>
<path d="M31.4404 247.967C31.3035 247.972 31.1689 247.931 31.0584 247.849C30.948 247.768 30.8681 247.652 30.8316 247.52C30.7951 247.388 30.8042 247.248 30.8574 247.121C30.9105 246.995 31.0047 246.89 31.1247 246.824C31.4948 246.596 40.334 241.381 49.0535 243.842C49.2115 243.89 49.345 243.997 49.4261 244.141C49.5072 244.285 49.5297 244.454 49.4889 244.614C49.4433 244.771 49.3377 244.904 49.1951 244.983C49.0524 245.063 48.8842 245.083 48.7269 245.039C40.5082 242.742 31.7996 247.837 31.7996 247.891C31.6899 247.951 31.565 247.977 31.4404 247.967Z" fill="white"/>
<path d="M62.2 286.938C62.3163 288.521 62.8036 290.054 63.6224 291.414C64.4413 292.774 65.5687 293.922 66.9135 294.765L198.99 370.965C200.45 371.706 202.065 372.092 203.703 372.092C205.341 372.092 206.956 371.706 208.417 370.965L389.119 266.625C390.544 265.874 391.736 264.748 392.567 263.368C393.399 261.989 393.838 260.409 393.838 258.799C393.838 257.188 393.399 255.608 392.567 254.229C391.736 252.85 390.544 251.724 389.119 250.972L257.054 174.772C255.593 174.031 253.978 173.645 252.341 173.645C250.703 173.645 249.088 174.031 247.627 174.772L66.9243 279.111C65.5775 279.953 64.448 281.101 63.6272 282.46C62.8064 283.82 62.3175 285.354 62.2 286.938Z" fill="#37474F"/>
<path d="M203.704 361.941V372.14C202.066 372.185 200.443 371.811 198.991 371.052L66.9144 294.852C65.5336 294.124 64.3703 293.044 63.5432 291.72C62.7161 290.396 62.2546 288.877 62.206 287.317C62.1573 285.757 62.5231 284.212 63.266 282.839C64.009 281.467 65.1026 280.315 66.4354 279.503C64.3236 281.016 64.4869 283.237 66.9144 284.641L198.991 360.841C200.442 361.604 202.065 361.982 203.704 361.941Z" fill="#263238"/>
<path d="M57.7809 279.275C56.4668 278.385 55.3814 277.198 54.6134 275.809C53.8453 274.421 53.4163 272.87 53.3613 271.285V113.67C53.4507 112.035 53.924 110.444 54.7429 109.025C55.5618 107.607 56.7033 106.401 58.0748 105.506L238.777 1.17759C240.18 0.434844 241.737 0.0320951 243.323 0.00184064C244.91 -0.0284138 246.481 0.314673 247.911 1.00342C249.226 1.89521 250.312 3.08435 251.082 4.47445C251.852 5.86455 252.283 7.41647 252.341 9.00441V166.608C252.253 168.243 251.781 169.835 250.962 171.254C250.143 172.673 249 173.878 247.628 174.772L66.9249 279.111C65.5213 279.857 63.9615 280.26 62.3725 280.288C60.7835 280.317 59.2103 279.969 57.7809 279.275Z" fill="#455A64"/>
<path d="M66.3589 279.394C65.0075 280.004 63.5388 280.309 62.0566 280.288C60.5744 280.267 59.1148 279.921 57.7809 279.275C56.4686 278.383 55.3847 277.196 54.6169 275.807C53.849 274.419 53.4189 272.87 53.3613 271.285V113.671C53.4148 112.031 53.891 110.434 54.7438 109.033L63.583 114.128C62.7365 115.531 62.2607 117.127 62.2005 118.765V276.39C62.2005 279.177 64.0184 280.429 66.3589 279.394Z" fill="#263238"/>
<path d="M62.2 118.776V276.39C62.2 279.394 64.3118 280.614 66.9135 279.111L247.616 174.772C248.989 173.878 250.131 172.673 250.95 171.254C251.769 169.835 252.242 168.243 252.33 166.608V9.00447C252.33 6.00002 250.218 4.78082 247.616 6.28305L66.9135 110.612C65.5425 111.507 64.4015 112.713 63.5826 114.131C62.7638 115.55 62.2902 117.141 62.2 118.776Z" fill="#37474F"/>
<path d="M66.9133 284.554L198.989 360.754C200.45 361.495 202.065 361.881 203.703 361.881C205.341 361.881 206.956 361.495 208.417 360.754L389.119 256.415C391.721 254.912 391.721 252.474 389.119 250.972L257.054 174.772C255.593 174.031 253.978 173.645 252.34 173.645C250.702 173.645 249.088 174.031 247.627 174.772L66.9242 279.111C64.3116 280.614 64.3116 283.019 66.9133 284.554Z" fill="#455A64"/>
<path d="M69.4502 119.364L243.621 18.8016C245.189 17.8981 246.452 18.6274 246.452 20.4344V156.865C246.399 157.847 246.116 158.802 245.624 159.654C245.132 160.505 244.446 161.228 243.621 161.764L69.4502 262.337C67.8826 263.24 66.6199 262.511 66.6199 260.704V124.262C66.6722 123.28 66.9558 122.325 67.4477 121.474C67.9396 120.622 68.6257 119.899 69.4502 119.364Z" fill="white"/>
<path opacity="0.6" d="M69.4502 119.364L243.621 18.8016C245.189 17.8981 246.452 18.6274 246.452 20.4344V156.865C246.399 157.847 246.116 158.802 245.624 159.654C245.132 160.505 244.446 161.228 243.621 161.764L69.4502 262.337C67.8826 263.24 66.6199 262.511 66.6199 260.704V124.262C66.6722 123.28 66.9558 122.325 67.4477 121.474C67.9396 120.622 68.6257 119.899 69.4502 119.364Z" fill="#19C078"/>
<path d="M156.187 110.731C160.824 108.053 164.59 110.23 164.59 115.586C164.431 118.5 163.587 121.335 162.127 123.862C160.667 126.389 158.632 128.536 156.187 130.129C151.549 132.807 147.794 130.641 147.794 125.285C147.95 122.371 148.792 119.534 150.25 117.005C151.708 114.476 153.742 112.327 156.187 110.731Z" fill="#F0F0F0"/>
<path d="M172.746 139.382C172.746 130.587 166.563 126.679 158.943 131.076L154.186 133.885C146.566 138.239 140.383 148.983 140.383 157.834V160.207L172.746 141.527V139.382Z" fill="#F0F0F0"/>
<path d="M189.107 143.682C188.802 142.975 188.018 142.8 187.136 143.301L130.618 175.958C130.011 176.358 129.506 176.894 129.143 177.523C128.78 178.152 128.569 178.858 128.528 179.583V186.224C128.528 187.312 129.203 187.911 130.117 187.66L130.27 187.606C130.389 187.558 130.505 187.504 130.618 187.443L187.136 154.786C187.746 154.389 188.253 153.854 188.616 153.224C188.979 152.594 189.188 151.887 189.226 151.161V144.553C189.237 144.258 189.196 143.964 189.107 143.682Z" fill="#F0F0F0"/>
<path d="M135.723 176.786C136.811 176.143 137.715 176.666 137.715 177.929C137.68 178.619 137.481 179.291 137.134 179.889C136.788 180.487 136.304 180.995 135.723 181.369C134.634 182 133.742 181.488 133.742 180.215C133.777 179.527 133.976 178.858 134.32 178.262C134.664 177.666 135.145 177.16 135.723 176.786Z" fill="#19C078"/>
<path d="M142.298 172.987C143.387 172.355 144.279 172.867 144.279 174.14C144.244 174.828 144.045 175.497 143.701 176.093C143.357 176.689 142.876 177.195 142.298 177.569C141.209 178.212 140.306 177.689 140.306 176.481C140.333 175.781 140.528 175.098 140.874 174.49C141.221 173.882 141.709 173.366 142.298 172.987Z" fill="#19C078"/>
<path d="M148.862 169.198C149.951 168.567 150.844 169.079 150.844 170.341C150.81 171.031 150.612 171.702 150.268 172.3C149.923 172.898 149.442 173.406 148.862 173.781C147.774 174.413 146.87 173.901 146.87 172.638C146.906 171.948 147.105 171.276 147.451 170.678C147.797 170.08 148.281 169.573 148.862 169.198Z" fill="#19C078"/>
<path d="M155.427 165.454C156.515 164.812 157.419 165.334 157.419 166.542C157.383 167.233 157.184 167.905 156.838 168.503C156.492 169.101 156.008 169.608 155.427 169.982C154.338 170.614 153.445 170.102 153.445 168.894C153.479 168.204 153.677 167.533 154.021 166.935C154.366 166.337 154.847 165.829 155.427 165.454Z" fill="#19C078"/>
<path d="M161.989 161.611C163.078 160.98 163.981 161.491 163.981 162.765C163.942 163.454 163.741 164.125 163.395 164.722C163.049 165.32 162.567 165.827 161.989 166.205C160.9 166.836 160.008 166.325 160.008 165.051C160.046 164.363 160.245 163.693 160.589 163.095C160.933 162.498 161.413 161.99 161.989 161.611Z" fill="#19C078"/>
<path d="M168.564 157.834C169.653 157.202 170.545 157.714 170.545 158.922C170.511 159.612 170.314 160.283 169.97 160.881C169.625 161.479 169.143 161.987 168.564 162.362C167.476 162.994 166.572 162.482 166.572 161.274C166.607 160.583 166.806 159.911 167.153 159.313C167.499 158.715 167.983 158.208 168.564 157.834Z" fill="#19C078"/>
<path d="M175.128 154.035C176.217 153.403 177.109 153.915 177.109 155.178C177.075 155.867 176.878 156.538 176.534 157.136C176.189 157.735 175.707 158.242 175.128 158.618C174.04 159.249 173.147 158.737 173.147 157.475C173.181 156.785 173.378 156.114 173.723 155.516C174.067 154.918 174.549 154.41 175.128 154.035Z" fill="#19C078"/>
<path d="M181.693 150.214C182.781 149.582 183.685 150.094 183.685 151.368C183.645 152.057 183.444 152.727 183.098 153.325C182.752 153.922 182.271 154.43 181.693 154.808C180.604 155.439 179.711 154.927 179.711 153.654C179.751 152.966 179.951 152.297 180.295 151.699C180.639 151.102 181.118 150.594 181.693 150.214Z" fill="#19C078"/>
<path d="M82.2416 280.472L249.979 183.589C250.71 183.219 251.517 183.026 252.336 183.026C253.155 183.026 253.962 183.219 254.693 183.589L263.271 188.542C263.555 188.639 263.802 188.822 263.977 189.066C264.152 189.31 264.246 189.603 264.246 189.903C264.246 190.203 264.152 190.496 263.977 190.74C263.802 190.984 263.555 191.167 263.271 191.264L95.5112 288.136C94.7808 288.506 93.9734 288.699 93.1545 288.699C92.3356 288.699 91.5282 288.506 90.7977 288.136L82.2416 283.194C81.9572 283.097 81.7102 282.914 81.5353 282.67C81.3604 282.426 81.2664 282.133 81.2664 281.833C81.2664 281.533 81.3604 281.24 81.5353 280.996C81.7102 280.752 81.9572 280.569 82.2416 280.472Z" fill="#37474F"/>
<path d="M104.349 293.241L272.087 196.358C272.817 195.988 273.625 195.795 274.443 195.795C275.262 195.795 276.07 195.988 276.8 196.358L329.574 226.838C329.858 226.935 330.105 227.118 330.28 227.362C330.455 227.606 330.549 227.899 330.549 228.199C330.549 228.499 330.455 228.792 330.28 229.036C330.105 229.28 329.858 229.463 329.574 229.56L162.032 326.29C161.299 326.658 160.49 326.849 159.67 326.849C158.85 326.849 158.041 326.658 157.308 326.29L104.36 295.941C104.078 295.846 103.832 295.665 103.658 295.424C103.484 295.182 103.389 294.892 103.388 294.595C103.387 294.297 103.479 294.006 103.651 293.764C103.824 293.521 104.067 293.338 104.349 293.241Z" fill="#263238"/>
<path d="M254.714 239.966L259.972 236.929C260.19 236.799 260.179 236.581 259.972 236.45L253.865 232.945C253.735 232.878 253.592 232.843 253.446 232.843C253.3 232.843 253.156 232.878 253.027 232.945L247.769 235.982C247.551 236.102 247.562 236.32 247.769 236.461L253.843 239.966C253.977 240.039 254.127 240.077 254.279 240.077C254.431 240.077 254.58 240.039 254.714 239.966ZM244.351 227.916L239.104 230.942C238.875 231.073 238.886 231.29 239.104 231.432L245.178 234.937C245.309 235.001 245.452 235.035 245.597 235.035C245.743 235.035 245.886 235.001 246.016 234.937L251.274 231.9C251.492 231.769 251.481 231.552 251.274 231.421L245.156 227.938C245.033 227.873 244.896 227.837 244.756 227.833C244.617 227.829 244.478 227.858 244.351 227.916ZM227.38 237.713L218.497 242.84C218.269 242.971 218.291 243.188 218.497 243.33L224.561 246.835C224.691 246.9 224.834 246.933 224.98 246.933C225.125 246.933 225.269 246.9 225.399 246.835L234.293 241.708C234.51 241.577 234.499 241.36 234.293 241.229L228.218 237.713C228.088 237.649 227.945 237.615 227.799 237.615C227.654 237.615 227.51 237.649 227.38 237.713ZM236.677 232.346L231.419 235.383C231.201 235.503 231.212 235.721 231.419 235.862L237.536 239.368C237.667 239.432 237.81 239.465 237.956 239.465C238.101 239.465 238.244 239.432 238.375 239.368L243.622 236.33C243.85 236.2 243.839 235.982 243.622 235.851L237.536 232.368C237.406 232.294 237.259 232.254 237.109 232.25C236.959 232.246 236.811 232.279 236.677 232.346ZM216.07 244.244L210.823 247.271C210.594 247.401 210.605 247.619 210.823 247.76L216.897 251.266C217.027 251.332 217.171 251.367 217.316 251.367C217.462 251.367 217.606 251.332 217.735 251.266L222.993 248.239C223.211 248.109 223.2 247.891 222.993 247.75L216.919 244.244C216.787 244.178 216.642 244.144 216.494 244.144C216.347 244.144 216.202 244.178 216.07 244.244ZM208.395 248.675L203.149 251.701C202.92 251.832 202.931 252.049 203.149 252.191L209.234 255.696C209.364 255.76 209.507 255.794 209.653 255.794C209.798 255.794 209.942 255.76 210.072 255.696L215.33 252.659C215.547 252.528 215.536 252.311 215.33 252.18L209.234 248.697C209.106 248.626 208.963 248.588 208.817 248.584C208.671 248.58 208.527 248.611 208.395 248.675ZM232.279 262.935L237.536 259.898C237.754 259.767 237.743 259.55 237.536 259.419L231.462 255.914C231.333 255.847 231.189 255.812 231.043 255.812C230.897 255.812 230.754 255.847 230.624 255.914L225.377 258.951C225.149 259.071 225.17 259.288 225.377 259.43L231.44 262.935C231.57 263.002 231.714 263.037 231.86 263.037C232.005 263.037 232.149 263.002 232.279 262.935ZM224.659 267.366L229.917 264.328C230.134 264.198 230.123 263.991 229.917 263.85L223.842 260.344C223.713 260.278 223.569 260.243 223.423 260.243C223.277 260.243 223.134 260.278 223.004 260.344L217.757 263.381C217.529 263.512 217.539 263.719 217.757 263.86L223.831 267.366C223.952 267.422 224.084 267.451 224.218 267.451C224.351 267.451 224.483 267.422 224.604 267.366H224.659ZM216.984 271.796L222.242 268.759C222.46 268.639 222.449 268.422 222.242 268.28L216.168 264.775C216.038 264.708 215.895 264.673 215.749 264.673C215.603 264.673 215.459 264.708 215.33 264.775L209.996 267.779C209.767 267.91 209.778 268.128 209.996 268.258L216.07 271.763C216.2 271.839 216.346 271.882 216.496 271.887C216.646 271.893 216.795 271.862 216.93 271.796H216.984ZM209.364 276.227L214.622 273.189C214.84 273.07 214.829 272.852 214.622 272.71L208.548 269.205C208.418 269.141 208.274 269.108 208.129 269.108C207.983 269.108 207.84 269.141 207.71 269.205L202.452 272.242C202.234 272.373 202.245 272.591 202.452 272.721L208.526 276.227C208.638 276.274 208.758 276.298 208.88 276.298C209.001 276.298 209.122 276.274 209.234 276.227H209.364ZM247.149 244.397L252.395 241.36C252.624 241.229 252.613 241.022 252.395 240.881L246.245 237.376C246.115 237.309 245.972 237.274 245.826 237.274C245.68 237.274 245.536 237.309 245.407 237.376L240.149 240.413C239.931 240.543 239.942 240.75 240.149 240.892L246.245 244.375C246.367 244.438 246.502 244.473 246.64 244.477C246.777 244.481 246.914 244.453 247.04 244.397H247.149ZM240.073 258.548L251.688 251.734C251.906 251.603 251.895 251.385 251.688 251.255L236.894 242.742C236.765 242.675 236.621 242.64 236.475 242.64C236.329 242.64 236.186 242.675 236.056 242.742L230.004 246.236C229.775 246.367 229.786 246.585 230.004 246.726L237.82 251.233C238.059 251.374 238.07 251.592 237.82 251.712L232.975 254.51C232.747 254.64 232.769 254.858 232.975 254.999L239.05 258.505C239.19 258.582 239.347 258.622 239.507 258.622C239.667 258.622 239.824 258.582 239.964 258.505L240.073 258.548ZM200.884 253.105L195.627 256.142C195.409 256.262 195.42 256.48 195.627 256.621L201.614 260.159C201.744 260.224 201.887 260.257 202.033 260.257C202.178 260.257 202.322 260.224 202.452 260.159L207.699 257.122C207.927 256.992 207.917 256.774 207.699 256.643L201.614 253.127C201.479 253.047 201.326 253.004 201.17 253C201.014 252.996 200.859 253.032 200.721 253.105H200.884ZM193.21 257.536L187.952 260.573C187.734 260.704 187.745 260.91 187.952 261.052L194.026 264.557C194.156 264.624 194.3 264.659 194.445 264.659C194.591 264.659 194.735 264.624 194.865 264.557L200.111 261.52C200.34 261.389 200.329 261.172 200.111 261.041L194.037 257.536C193.89 257.441 193.718 257.39 193.542 257.39C193.366 257.39 193.194 257.441 193.047 257.536H193.21ZM154.849 307.229C154.978 307.296 155.122 307.331 155.268 307.331C155.414 307.331 155.557 307.296 155.687 307.229L160.945 304.192C161.162 304.061 161.152 303.844 160.945 303.713L154.87 300.208C154.741 300.141 154.597 300.106 154.451 300.106C154.306 300.106 154.162 300.141 154.032 300.208L148.785 303.245C148.557 303.365 148.568 303.582 148.785 303.724L154.849 307.229ZM131.804 292.991L126.383 296.082C126.165 296.202 126.176 296.42 126.383 296.561L132.457 300.066C132.587 300.131 132.731 300.164 132.876 300.164C133.021 300.164 133.165 300.131 133.295 300.066L138.542 297.029C138.771 296.899 138.76 296.681 138.542 296.55L132.468 293.045C132.344 292.971 132.204 292.928 132.061 292.919C131.917 292.909 131.773 292.934 131.64 292.991H131.804ZM144.159 303.386C144.289 303.453 144.432 303.488 144.578 303.488C144.724 303.488 144.868 303.453 144.997 303.386L150.244 300.349C150.473 300.219 150.451 300.001 150.244 299.87L144.17 296.365C144.04 296.298 143.897 296.263 143.751 296.263C143.605 296.263 143.461 296.298 143.332 296.365L138.085 299.402C137.867 299.533 137.878 299.74 138.085 299.881L144.159 303.386ZM168.401 309.918L173.659 306.881C173.877 306.75 173.866 306.532 173.659 306.402L167.585 302.897C167.455 302.83 167.312 302.795 167.166 302.795C167.02 302.795 166.876 302.83 166.747 302.897L161.337 305.879C161.108 305.999 161.119 306.217 161.337 306.358L167.411 309.863C167.535 309.936 167.674 309.98 167.817 309.991C167.96 310.003 168.104 309.981 168.238 309.929L168.401 309.918ZM159.889 314.272C160.018 314.339 160.162 314.374 160.308 314.374C160.454 314.374 160.597 314.339 160.727 314.272L165.985 311.235C166.202 311.104 166.192 310.887 165.985 310.756L159.911 307.251C159.781 307.184 159.637 307.149 159.491 307.149C159.346 307.149 159.202 307.184 159.072 307.251L153.815 310.288C153.597 310.408 153.608 310.625 153.815 310.767L159.889 314.272ZM139.478 288.495L134.22 291.521C134.003 291.652 134.013 291.869 134.22 292.011L140.295 295.516C140.425 295.58 140.568 295.614 140.714 295.614C140.859 295.614 141.002 295.58 141.133 295.516L146.38 292.479C146.608 292.348 146.597 292.131 146.38 292L140.305 288.484C140.149 288.404 139.974 288.368 139.799 288.382C139.624 288.395 139.457 288.457 139.315 288.56L139.478 288.495ZM177.665 266.397L172.407 269.434C172.19 269.565 172.201 269.782 172.407 269.913L178.482 273.418C178.611 273.485 178.755 273.52 178.901 273.52C179.046 273.52 179.19 273.485 179.32 273.418L184.567 270.381C184.795 270.261 184.773 270.044 184.567 269.902L178.492 266.397C178.364 266.333 178.222 266.299 178.079 266.299C177.935 266.299 177.794 266.333 177.665 266.397ZM146.989 284.108L141.742 287.156C141.514 287.286 141.525 287.504 141.742 287.646L147.817 291.151C147.946 291.218 148.09 291.253 148.236 291.253C148.381 291.253 148.525 291.218 148.655 291.151L153.913 288.125C154.13 287.994 154.119 287.776 153.913 287.635L147.827 284.108C147.697 284.043 147.554 284.01 147.408 284.01C147.263 284.01 147.12 284.043 146.989 284.108ZM185.372 261.945L180.114 264.982C179.897 265.112 179.908 265.33 180.114 265.461L186.189 268.966C186.318 269.033 186.462 269.067 186.608 269.067C186.754 269.067 186.897 269.033 187.027 268.966L192.274 265.929C192.502 265.798 192.481 265.591 192.274 265.45L186.2 261.945C186.07 261.883 185.927 261.853 185.783 261.856C185.64 261.86 185.499 261.898 185.372 261.966V261.945ZM170.045 270.827L164.798 273.864C164.57 273.995 164.591 274.213 164.798 274.343L170.872 277.849C171.002 277.915 171.146 277.95 171.292 277.95C171.437 277.95 171.581 277.915 171.711 277.849L176.958 274.822C177.175 274.692 177.164 274.474 176.958 274.332L170.883 270.827C170.753 270.763 170.61 270.729 170.464 270.729C170.319 270.729 170.175 270.763 170.045 270.827ZM162.371 275.269L157.124 278.295C156.895 278.425 156.917 278.643 157.124 278.774L163.187 282.29C163.317 282.354 163.461 282.388 163.606 282.388C163.752 282.388 163.895 282.354 164.025 282.29L169.283 279.264C169.501 279.133 169.49 278.915 169.283 278.774L163.209 275.269C163.075 275.196 162.926 275.158 162.774 275.158C162.621 275.158 162.472 275.196 162.338 275.269H162.371ZM154.751 279.699L149.504 282.725C149.275 282.856 149.286 283.074 149.504 283.215L155.578 286.72C155.708 286.785 155.852 286.818 155.997 286.818C156.143 286.818 156.286 286.785 156.416 286.72L161.674 283.694C161.892 283.564 161.881 283.346 161.674 283.204L155.502 279.754C155.372 279.689 155.228 279.656 155.083 279.656C154.937 279.656 154.794 279.689 154.664 279.754L154.751 279.699ZM193.939 285.088L199.186 282.061C199.415 281.931 199.393 281.713 199.186 281.571L193.112 278.066C192.982 277.999 192.839 277.965 192.693 277.965C192.547 277.965 192.403 277.999 192.274 278.066L187.016 281.092C186.798 281.223 186.809 281.441 187.016 281.582L193.09 285.088C193.218 285.148 193.357 285.18 193.498 285.18C193.64 285.18 193.779 285.148 193.907 285.088H193.939ZM261.354 218.119L256.042 221.156C255.824 221.276 255.835 221.493 256.042 221.635L262.116 225.14C262.247 225.204 262.39 225.238 262.536 225.238C262.681 225.238 262.824 225.204 262.955 225.14L268.202 222.103C268.43 221.972 268.419 221.755 268.202 221.624L262.127 218.119C262.002 218.057 261.864 218.025 261.725 218.025C261.585 218.025 261.447 218.057 261.322 218.119H261.354ZM252.058 223.485L246.811 226.512C246.583 226.642 246.593 226.86 246.811 227.001L252.885 230.507C253.015 230.573 253.159 230.608 253.304 230.608C253.45 230.608 253.594 230.573 253.724 230.507L258.981 227.48C259.199 227.35 259.188 227.132 258.981 226.991L252.907 223.485C252.771 223.414 252.62 223.376 252.466 223.376C252.313 223.376 252.161 223.414 252.025 223.485H252.058ZM269.029 213.688L263.771 216.714C263.553 216.845 263.564 217.063 263.771 217.204L269.845 220.709C269.976 220.774 270.119 220.807 270.264 220.807C270.41 220.807 270.553 220.774 270.683 220.709L275.93 217.672C276.159 217.542 276.148 217.324 275.93 217.193L269.856 213.677C269.722 213.611 269.574 213.578 269.425 213.58C269.275 213.581 269.128 213.619 268.996 213.688H269.029ZM229.263 254.716L234.521 251.679C234.739 251.549 234.728 251.331 234.521 251.2L228.447 247.684C228.317 247.62 228.173 247.586 228.028 247.586C227.882 247.586 227.739 247.62 227.609 247.684L222.297 250.645C222.079 250.776 222.09 250.993 222.297 251.135L228.371 254.64C228.502 254.726 228.652 254.777 228.807 254.791C228.963 254.804 229.12 254.778 229.263 254.716ZM277.509 209.323C277.378 209.259 277.235 209.225 277.09 209.225C276.944 209.225 276.801 209.259 276.671 209.323L271.424 212.262C271.195 212.393 271.206 212.611 271.424 212.752L277.498 216.257C277.628 216.324 277.771 216.359 277.917 216.359C278.063 216.359 278.207 216.324 278.336 216.257L283.594 213.231C283.812 213.1 283.801 212.883 283.594 212.741L277.509 209.323ZM201.614 280.657L206.861 277.631C207.089 277.5 207.078 277.282 206.861 277.141L200.786 273.636C200.656 273.571 200.513 273.538 200.367 273.538C200.222 273.538 200.079 273.571 199.948 273.636L194.69 276.673C194.473 276.804 194.484 277.021 194.69 277.152L200.765 280.668C200.897 280.732 201.043 280.765 201.19 280.763C201.338 280.761 201.483 280.725 201.614 280.657ZM295.742 226.316L300.989 223.279C301.218 223.148 301.207 222.93 300.989 222.8L294.915 219.294C294.785 219.228 294.642 219.193 294.496 219.193C294.35 219.193 294.206 219.228 294.077 219.294L288.819 222.331C288.601 222.451 288.612 222.669 288.819 222.81L294.893 226.316C295.02 226.379 295.16 226.412 295.301 226.412C295.443 226.412 295.583 226.379 295.71 226.316H295.742ZM279.414 225.739L284.661 222.702C284.889 222.571 284.878 222.353 284.661 222.223L278.586 218.717C278.457 218.651 278.313 218.616 278.167 218.616C278.022 218.616 277.878 218.651 277.748 218.717L272.371 221.733C272.153 221.852 272.164 222.07 272.371 222.212L278.445 225.717C278.582 225.8 278.739 225.847 278.899 225.85C279.06 225.854 279.218 225.816 279.359 225.739H279.414ZM286.239 214.276C286.109 214.212 285.965 214.178 285.82 214.178C285.675 214.178 285.531 214.212 285.401 214.276L280.143 217.302C279.925 217.433 279.936 217.651 280.143 217.792L286.217 221.297C286.348 221.362 286.491 221.395 286.636 221.395C286.782 221.395 286.925 221.362 287.056 221.297L292.313 218.26C292.531 218.13 292.52 217.912 292.313 217.781L286.239 214.276ZM287.85 213.351L302.6 221.863C302.731 221.928 302.874 221.961 303.019 221.961C303.165 221.961 303.308 221.928 303.439 221.863L308.696 218.826C308.914 218.696 308.903 218.478 308.696 218.347L293.946 209.824C293.816 209.759 293.672 209.726 293.527 209.726C293.382 209.726 293.238 209.759 293.108 209.824L287.861 212.85C287.545 212.992 287.611 213.209 287.796 213.351H287.85ZM270.052 223.148L264.751 226.163C264.533 226.294 264.544 226.501 264.751 226.642L270.825 230.147C270.955 230.214 271.098 230.249 271.244 230.249C271.39 230.249 271.534 230.214 271.663 230.147L276.91 227.11C277.139 226.98 277.128 226.773 276.91 226.631L270.836 223.148C270.706 223.081 270.563 223.046 270.417 223.046C270.271 223.046 270.127 223.081 269.998 223.148H270.052ZM212.282 256.502L207.024 259.539C206.806 259.669 206.817 259.876 207.024 260.018L213.098 263.523C213.228 263.59 213.371 263.625 213.517 263.625C213.663 263.625 213.807 263.59 213.936 263.523L219.183 260.486C219.412 260.355 219.39 260.148 219.183 260.007L213.12 256.502C212.985 256.422 212.833 256.378 212.676 256.374C212.52 256.371 212.365 256.407 212.227 256.48L212.282 256.502ZM287.197 230.768C287.327 230.835 287.47 230.87 287.616 230.87C287.762 230.87 287.906 230.835 288.035 230.768L293.282 227.731C293.511 227.6 293.5 227.393 293.282 227.252L287.208 223.747C287.078 223.68 286.935 223.645 286.789 223.645C286.643 223.645 286.499 223.68 286.37 223.747L281.079 226.74C280.862 226.871 280.872 227.078 281.079 227.219L287.197 230.768ZM219.902 252.049L214.677 255.087C214.459 255.206 214.47 255.424 214.677 255.566L220.751 259.071C220.88 259.138 221.024 259.172 221.17 259.172C221.316 259.172 221.459 259.138 221.589 259.071L226.836 256.034C227.064 255.903 227.054 255.685 226.836 255.555L220.762 252.049C220.629 251.979 220.482 251.942 220.332 251.942C220.182 251.942 220.034 251.979 219.902 252.049ZM162.36 302.799C162.49 302.863 162.634 302.896 162.779 302.896C162.924 302.896 163.068 302.863 163.198 302.799L168.456 299.761C168.674 299.631 168.663 299.413 168.456 299.282L162.382 295.777C162.252 295.71 162.108 295.676 161.963 295.676C161.817 295.676 161.673 295.71 161.543 295.777L156.296 298.814C156.068 298.934 156.079 299.152 156.296 299.293L162.36 302.799ZM150.821 291.913L145.563 294.994C145.345 295.113 145.356 295.331 145.563 295.472L151.637 298.978C151.768 299.042 151.911 299.075 152.057 299.075C152.202 299.075 152.345 299.042 152.476 298.978L157.723 295.941C157.951 295.81 157.929 295.592 157.723 295.462L151.659 291.956C151.531 291.886 151.389 291.848 151.243 291.844C151.097 291.84 150.952 291.871 150.821 291.935V291.913ZM170.872 298.368L176.13 295.331C176.348 295.2 176.337 294.983 176.13 294.852L170.045 291.358C169.915 291.293 169.771 291.26 169.626 291.26C169.481 291.26 169.337 291.293 169.207 291.358L163.96 294.384C163.731 294.515 163.753 294.732 163.96 294.874L170.045 298.368C170.172 298.434 170.313 298.47 170.456 298.474C170.6 298.478 170.742 298.449 170.872 298.39V298.368ZM178.558 293.927L183.805 290.9C184.022 290.77 184.012 290.552 183.805 290.411L177.665 286.927C177.535 286.863 177.391 286.829 177.246 286.829C177.101 286.829 176.957 286.863 176.827 286.927L171.58 289.953C171.351 290.084 171.373 290.302 171.58 290.443L177.654 293.949C177.796 294.02 177.953 294.054 178.112 294.046C178.27 294.039 178.424 293.99 178.558 293.905V293.927ZM186.232 289.496L191.479 286.47C191.708 286.339 191.686 286.122 191.479 285.98L185.405 282.475C185.276 282.411 185.135 282.377 184.991 282.377C184.848 282.377 184.706 282.411 184.578 282.475L179.32 285.501C179.102 285.632 179.113 285.85 179.32 285.991L185.394 289.551C185.524 289.615 185.668 289.648 185.813 289.648C185.958 289.648 186.102 289.615 186.232 289.551V289.496ZM158.495 287.482L153.238 290.509C153.02 290.639 153.031 290.857 153.238 290.998L159.312 294.504C159.442 294.568 159.586 294.601 159.731 294.601C159.876 294.601 160.02 294.568 160.15 294.504L165.397 291.467C165.626 291.336 165.615 291.118 165.397 290.988L159.323 287.471C159.191 287.414 159.049 287.387 158.905 287.393C158.762 287.398 158.622 287.436 158.495 287.504V287.482ZM166.17 283.052L160.912 286.078C160.694 286.209 160.705 286.426 160.912 286.568L166.986 290.073C167.116 290.14 167.26 290.175 167.405 290.175C167.551 290.175 167.695 290.14 167.824 290.073L173.071 287.047C173.3 286.916 173.289 286.699 173.071 286.557L166.997 283.052C166.867 282.993 166.724 282.964 166.581 282.968C166.438 282.971 166.297 283.008 166.17 283.074V283.052ZM196.868 265.319L191.621 268.356C191.392 268.487 191.414 268.705 191.621 268.835L197.695 272.34C197.822 272.407 197.964 272.442 198.108 272.442C198.253 272.442 198.394 272.407 198.522 272.34L203.78 269.303C203.998 269.184 203.987 268.966 203.78 268.824L197.706 265.319C197.574 265.258 197.429 265.228 197.284 265.232C197.139 265.236 196.996 265.273 196.868 265.341V265.319ZM189.248 269.75L184.001 272.787C183.772 272.917 183.794 273.135 184.001 273.266L190.064 276.782C190.194 276.846 190.338 276.88 190.483 276.88C190.628 276.88 190.772 276.846 190.902 276.782L196.16 273.756C196.378 273.625 196.367 273.407 196.16 273.266L190.086 269.76C189.948 269.689 189.794 269.652 189.638 269.654C189.482 269.656 189.33 269.696 189.193 269.771L189.248 269.75ZM204.607 260.889L199.349 263.926C199.132 264.056 199.143 264.274 199.349 264.405L205.424 267.91C205.553 267.977 205.697 268.012 205.843 268.012C205.989 268.012 206.132 267.977 206.262 267.91L211.509 264.873C211.737 264.753 211.716 264.535 211.509 264.394L205.435 260.889C205.298 260.816 205.145 260.779 204.991 260.783C204.836 260.787 204.685 260.831 204.553 260.91L204.607 260.889ZM173.844 278.665L168.597 281.691C168.369 281.822 168.38 282.04 168.597 282.181L174.672 285.686C174.802 285.751 174.945 285.784 175.091 285.784C175.236 285.784 175.379 285.751 175.51 285.686L180.768 282.66C180.985 282.529 180.974 282.312 180.768 282.17L174.682 278.665C174.552 278.601 174.409 278.567 174.263 278.567C174.118 278.567 173.975 278.601 173.844 278.665ZM181.464 274.234L176.217 277.261C175.989 277.391 176 277.609 176.217 277.751L182.292 281.256C182.422 281.32 182.565 281.354 182.711 281.354C182.856 281.354 182.999 281.32 183.13 281.256L188.388 278.23C188.605 278.099 188.594 277.881 188.388 277.74L182.313 274.234C182.191 274.171 182.056 274.136 181.918 274.133C181.781 274.129 181.644 274.156 181.519 274.213L181.464 274.234ZM175.858 305.52L181.116 302.483C181.334 302.352 181.323 302.135 181.116 302.004L175.042 298.488C174.911 298.424 174.768 298.39 174.623 298.39C174.477 298.39 174.334 298.424 174.203 298.488L168.957 301.525C168.728 301.656 168.739 301.873 168.957 302.015L175.02 305.52C175.159 305.59 175.313 305.625 175.469 305.621C175.625 305.617 175.777 305.575 175.913 305.498L175.858 305.52ZM130.857 300.948L124.793 297.443C124.664 297.376 124.52 297.341 124.374 297.341C124.228 297.341 124.085 297.376 123.955 297.443L118.708 300.436C118.49 300.556 118.501 300.774 118.708 300.915L124.782 304.421C124.912 304.487 125.056 304.522 125.201 304.522C125.347 304.522 125.491 304.487 125.621 304.421L130.867 301.383C131.129 301.296 131.107 301.079 130.857 300.948ZM142.363 304.323L136.299 300.817C136.17 300.751 136.026 300.716 135.88 300.716C135.735 300.716 135.591 300.751 135.461 300.817L127.384 305.487C127.166 305.618 127.177 305.825 127.384 305.966L133.458 309.471C133.588 309.538 133.732 309.573 133.877 309.573C134.023 309.573 134.167 309.538 134.297 309.471L142.374 304.802C142.624 304.671 142.613 304.464 142.374 304.323H142.363ZM121.549 294.166L115.486 290.639C115.356 290.575 115.212 290.541 115.067 290.541C114.922 290.541 114.778 290.575 114.648 290.639L108.182 294.373C107.953 294.504 107.975 294.721 108.182 294.863L114.245 298.368C114.375 298.432 114.519 298.466 114.664 298.466C114.809 298.466 114.953 298.432 115.083 298.368L121.549 294.634C121.811 294.525 121.8 294.308 121.56 294.166H121.549ZM126.502 291.303C126.632 291.37 126.776 291.405 126.921 291.405C127.067 291.405 127.211 291.37 127.341 291.303L132.587 288.266C132.816 288.136 132.794 287.929 132.587 287.787L126.502 284.304C126.373 284.237 126.229 284.202 126.083 284.202C125.937 284.202 125.794 284.237 125.664 284.304L120.406 287.374C120.189 287.504 120.2 287.711 120.406 287.853L126.502 291.303ZM153.063 308.165L146.989 304.66C146.86 304.593 146.716 304.558 146.57 304.558C146.424 304.558 146.281 304.593 146.151 304.66L136.049 310.495C135.831 310.625 135.842 310.843 136.049 310.974L142.123 314.479C142.253 314.546 142.397 314.581 142.542 314.581C142.688 314.581 142.832 314.546 142.962 314.479L153.053 308.644C153.325 308.514 153.314 308.307 153.074 308.165H153.063ZM158.104 315.274L152.029 311.768C151.9 311.702 151.756 311.667 151.61 311.667C151.464 311.667 151.321 311.702 151.191 311.768L144.725 315.502C144.507 315.633 144.518 315.851 144.725 315.981L150.799 319.497C150.93 319.562 151.073 319.595 151.218 319.595C151.364 319.595 151.507 319.562 151.637 319.497L158.093 315.763C158.365 315.676 158.354 315.415 158.071 315.274H158.104ZM183.565 258.352C183.695 258.419 183.838 258.454 183.984 258.454C184.13 258.454 184.274 258.419 184.403 258.352L189.661 255.315C189.879 255.195 189.868 254.978 189.661 254.836L183.587 251.331C183.457 251.264 183.314 251.229 183.168 251.229C183.022 251.229 182.878 251.264 182.749 251.331L177.502 254.368C177.273 254.499 177.295 254.716 177.502 254.847L183.565 258.352ZM168.216 267.224C168.347 267.288 168.49 267.322 168.635 267.322C168.781 267.322 168.924 267.288 169.055 267.224L174.312 264.198C174.53 264.067 174.519 263.85 174.312 263.708L168.238 260.203C168.108 260.139 167.964 260.105 167.819 260.105C167.674 260.105 167.53 260.139 167.4 260.203L162.153 263.24C161.924 263.371 161.935 263.588 162.153 263.719L168.216 267.224ZM134.177 286.873C134.306 286.94 134.45 286.974 134.596 286.974C134.742 286.974 134.885 286.94 135.015 286.873L140.262 283.836C140.49 283.705 140.48 283.487 140.262 283.357L134.188 279.852C134.058 279.785 133.914 279.75 133.769 279.75C133.623 279.75 133.479 279.785 133.349 279.852L128.092 282.889C127.874 283.008 127.885 283.226 128.092 283.368L134.177 286.873ZM175.891 262.783C176.02 262.85 176.164 262.884 176.31 262.884C176.456 262.884 176.599 262.85 176.729 262.783L181.987 259.746C182.204 259.626 182.194 259.408 181.987 259.267L175.891 255.805C175.76 255.741 175.617 255.707 175.472 255.707C175.326 255.707 175.183 255.741 175.053 255.805L169.806 258.842C169.577 258.973 169.588 259.19 169.806 259.321L175.891 262.783ZM160.542 271.655C160.672 271.719 160.816 271.752 160.961 271.752C161.106 271.752 161.25 271.719 161.38 271.655L166.638 268.628C166.856 268.498 166.845 268.28 166.638 268.138L160.564 264.633C160.434 264.566 160.29 264.532 160.145 264.532C159.999 264.532 159.855 264.566 159.726 264.633L154.468 267.66C154.25 267.79 154.261 268.008 154.468 268.149L160.542 271.655ZM162.316 315.84C162.187 315.773 162.043 315.738 161.897 315.738C161.751 315.738 161.608 315.773 161.478 315.84L153.401 320.499C153.183 320.629 153.194 320.847 153.401 320.989L159.475 324.494C159.605 324.558 159.749 324.592 159.894 324.592C160.04 324.592 160.183 324.558 160.313 324.494L168.391 319.835C168.608 319.704 168.597 319.486 168.391 319.345L162.316 315.84ZM149.536 278.012C149.666 278.079 149.81 278.114 149.956 278.114C150.101 278.114 150.245 278.079 150.375 278.012L155.632 274.986C155.85 274.855 155.839 274.637 155.632 274.496L149.526 271.045C149.395 270.981 149.252 270.947 149.106 270.947C148.961 270.947 148.818 270.981 148.687 271.045L143.44 274.071C143.212 274.202 143.223 274.42 143.44 274.561L149.536 278.012ZM141.916 282.442C142.047 282.507 142.19 282.54 142.336 282.54C142.481 282.54 142.624 282.507 142.755 282.442L148.002 279.405C148.23 279.275 148.219 279.057 148.002 278.926L141.851 275.399C141.722 275.332 141.578 275.298 141.432 275.298C141.286 275.298 141.143 275.332 141.013 275.399L135.755 278.425C135.537 278.556 135.548 278.774 135.755 278.915L141.916 282.442ZM304.592 233.74C304.462 233.675 304.319 233.642 304.173 233.642C304.028 233.642 303.885 233.675 303.754 233.74L290.822 241.207C290.604 241.338 290.615 241.556 290.822 241.697L296.896 245.202C297.027 245.267 297.17 245.3 297.315 245.3C297.461 245.3 297.604 245.267 297.734 245.202L310.656 237.735C310.884 237.615 310.874 237.397 310.656 237.256L304.592 233.74ZM287.622 243.537C287.492 243.47 287.348 243.435 287.203 243.435C287.057 243.435 286.913 243.47 286.783 243.537L281.537 246.574C281.308 246.705 281.319 246.922 281.537 247.053L287.611 250.558C287.74 250.625 287.884 250.66 288.03 250.66C288.176 250.66 288.319 250.625 288.449 250.558L293.707 247.521C293.924 247.401 293.914 247.184 293.707 247.042L287.622 243.537ZM183.641 301.057L188.899 298.031C189.117 297.9 189.106 297.682 188.899 297.541L182.825 294.036C182.695 293.971 182.551 293.938 182.406 293.938C182.261 293.938 182.117 293.971 181.987 294.036L176.74 297.062C176.511 297.192 176.533 297.41 176.74 297.552L182.814 301.057C182.935 301.115 183.067 301.145 183.201 301.145C183.334 301.145 183.466 301.115 183.587 301.057H183.641ZM272.273 252.398C272.143 252.331 271.999 252.296 271.854 252.296C271.708 252.296 271.564 252.331 271.435 252.398L266.177 255.424C265.959 255.555 265.97 255.772 266.177 255.914L272.251 259.419C272.381 259.483 272.525 259.517 272.67 259.517C272.815 259.517 272.959 259.483 273.089 259.419L278.336 256.393C278.565 256.262 278.554 256.044 278.336 255.903L272.273 252.398ZM312.267 229.309C312.137 229.242 311.994 229.207 311.848 229.207C311.702 229.207 311.558 229.242 311.429 229.309L306.116 232.325C305.899 232.455 305.91 232.673 306.116 232.803L312.191 236.309C312.32 236.376 312.464 236.41 312.61 236.41C312.756 236.41 312.899 236.376 313.029 236.309L318.276 233.272C318.504 233.152 318.493 232.934 318.276 232.793L312.267 229.309ZM326.016 228.384L311.211 219.882C311.081 219.815 310.938 219.78 310.792 219.78C310.646 219.78 310.502 219.815 310.373 219.882L305.126 222.919C304.897 223.039 304.908 223.257 305.126 223.398L319.898 231.856C320.027 231.923 320.171 231.958 320.317 231.958C320.463 231.958 320.606 231.923 320.736 231.856L325.994 228.819C326.211 228.732 326.201 228.525 325.961 228.384H326.016ZM243.589 268.955C243.459 268.891 243.315 268.857 243.17 268.857C243.025 268.857 242.881 268.891 242.751 268.955L236.285 272.689C236.056 272.808 236.078 273.026 236.285 273.168L242.359 276.673C242.488 276.74 242.632 276.775 242.778 276.775C242.924 276.775 243.067 276.74 243.197 276.673L249.652 272.939C249.881 272.808 249.87 272.591 249.652 272.46L243.589 268.955ZM262.976 257.764C262.846 257.7 262.703 257.667 262.557 257.667C262.412 257.667 262.269 257.7 262.138 257.764L254.061 262.434C253.832 262.565 253.854 262.783 254.061 262.913L260.135 266.419C260.265 266.485 260.409 266.52 260.554 266.52C260.7 266.52 260.844 266.485 260.973 266.419L269.051 261.749C269.268 261.629 269.257 261.411 269.051 261.27L262.976 257.764ZM225.813 279.22C225.683 279.153 225.539 279.118 225.394 279.118C225.248 279.118 225.104 279.153 224.974 279.22L181.693 304.159C181.464 304.29 181.486 304.508 181.693 304.649L187.756 308.154C187.887 308.219 188.03 308.252 188.175 308.252C188.321 308.252 188.464 308.219 188.594 308.154L231.822 283.204C232.05 283.074 232.039 282.856 231.822 282.714L225.813 279.22ZM180.158 305.574C180.028 305.51 179.884 305.477 179.739 305.477C179.594 305.477 179.45 305.51 179.32 305.574L172.854 309.308C172.636 309.428 172.647 309.646 172.854 309.787L178.928 313.292C179.057 313.359 179.201 313.394 179.347 313.394C179.493 313.394 179.636 313.359 179.766 313.292L186.232 309.559C186.45 309.428 186.439 309.21 186.232 309.08L180.158 305.574ZM234.695 274.093C234.566 274.026 234.422 273.991 234.276 273.991C234.13 273.991 233.987 274.026 233.857 274.093L227.402 277.827C227.173 277.957 227.184 278.175 227.402 278.306L233.476 281.822C233.606 281.886 233.75 281.92 233.895 281.92C234.041 281.92 234.184 281.886 234.314 281.822L240.78 278.088C240.998 277.957 240.987 277.751 240.78 277.609L234.695 274.093ZM171.275 310.712C171.146 310.646 171.002 310.611 170.856 310.611C170.71 310.611 170.567 310.646 170.437 310.712L163.971 314.446C163.742 314.577 163.764 314.795 163.971 314.925L170.045 318.441C170.174 318.506 170.315 318.539 170.459 318.539C170.602 318.539 170.744 318.506 170.872 318.441L177.339 314.708C177.567 314.577 177.556 314.37 177.339 314.229L171.275 310.712ZM252.472 263.828C252.341 263.763 252.198 263.73 252.053 263.73C251.907 263.73 251.764 263.763 251.633 263.828L245.156 267.54C244.939 267.67 244.95 267.888 245.156 268.03L251.231 271.535C251.36 271.602 251.504 271.637 251.65 271.637C251.796 271.637 251.939 271.602 252.069 271.535L258.535 267.812C258.753 267.681 258.742 267.464 258.535 267.322L252.472 263.828ZM279.947 247.967C279.817 247.903 279.673 247.87 279.528 247.87C279.383 247.87 279.239 247.903 279.109 247.967L273.851 251.004C273.633 251.135 273.644 251.353 273.851 251.483L279.925 254.999C280.056 255.064 280.199 255.097 280.345 255.097C280.49 255.097 280.633 255.064 280.764 254.999L286.011 251.973C286.239 251.843 286.228 251.625 286.011 251.483L279.947 247.967ZM296.766 235.754L302.013 232.716C302.241 232.597 302.23 232.379 302.013 232.237L295.938 228.732C295.809 228.665 295.665 228.631 295.519 228.631C295.373 228.631 295.23 228.665 295.1 228.732L289.788 231.748C289.57 231.878 289.581 232.096 289.788 232.227L295.862 235.732C295.991 235.804 296.136 235.843 296.284 235.847C296.432 235.851 296.578 235.819 296.711 235.754H296.766ZM262.443 235.536L267.701 232.499C267.918 232.368 267.908 232.15 267.701 232.02L261.627 228.515C261.497 228.448 261.353 228.413 261.207 228.413C261.062 228.413 260.918 228.448 260.788 228.515L255.541 231.541C255.313 231.671 255.324 231.889 255.541 232.031L261.616 235.536C261.737 235.59 261.869 235.618 262.002 235.618C262.135 235.618 262.267 235.59 262.389 235.536H262.443ZM245.026 265.613L260.375 256.741C260.592 256.621 260.582 256.404 260.375 256.262L254.3 252.757C254.171 252.69 254.027 252.655 253.881 252.655C253.736 252.655 253.592 252.69 253.462 252.757L238.113 261.618C237.885 261.749 237.907 261.966 238.113 262.108L244.188 265.613C244.316 265.672 244.456 265.702 244.597 265.7C244.738 265.698 244.877 265.665 245.004 265.602L245.026 265.613ZM288.22 240.162C288.35 240.229 288.494 240.264 288.639 240.264C288.785 240.264 288.929 240.229 289.059 240.162L294.305 237.136C294.534 237.005 294.512 236.788 294.305 236.646L288.242 233.141C288.112 233.077 287.968 233.043 287.823 233.043C287.678 233.043 287.534 233.077 287.404 233.141L282.092 236.211C281.874 236.341 281.885 236.559 282.092 236.69L288.22 240.162ZM280.383 235.177L285.63 232.139C285.858 232.02 285.847 231.802 285.63 231.661L279.566 228.155C279.437 228.088 279.293 228.054 279.147 228.054C279.001 228.054 278.858 228.088 278.728 228.155L273.459 231.171C273.242 231.301 273.253 231.519 273.459 231.65L279.534 235.155C279.66 235.223 279.801 235.261 279.945 235.265C280.088 235.268 280.231 235.238 280.361 235.177H280.383ZM237.341 270.011L242.598 266.974C242.816 266.843 242.805 266.625 242.598 266.495L236.448 263.022C236.318 262.955 236.175 262.921 236.029 262.921C235.883 262.921 235.739 262.955 235.61 263.022L230.363 266.059C230.134 266.179 230.156 266.397 230.363 266.538L236.426 270.043C236.563 270.117 236.717 270.155 236.872 270.155C237.028 270.155 237.181 270.117 237.319 270.043L237.341 270.011ZM271.282 249.959C271.412 250.026 271.555 250.061 271.701 250.061C271.847 250.061 271.991 250.026 272.12 249.959L277.367 246.922C277.596 246.803 277.585 246.585 277.367 246.443L271.293 242.938C271.163 242.871 271.02 242.836 270.874 242.836C270.728 242.836 270.584 242.871 270.455 242.938L265.121 246.008C264.903 246.138 264.914 246.356 265.121 246.487L271.282 249.959ZM199.001 292.196L204.248 289.17C204.477 289.039 204.455 288.821 204.248 288.68L198.098 285.196C197.968 285.13 197.824 285.095 197.678 285.095C197.533 285.095 197.389 285.13 197.259 285.196L192.002 288.223C191.784 288.353 191.795 288.571 192.002 288.712L198.076 292.218C198.212 292.284 198.362 292.317 198.514 292.313C198.665 292.309 198.814 292.269 198.947 292.196H199.001ZM206.621 287.765L211.868 284.739C212.097 284.609 212.086 284.391 211.868 284.249L205.794 280.744C205.663 280.68 205.52 280.646 205.375 280.646C205.229 280.646 205.086 280.68 204.956 280.744L199.698 283.781C199.48 283.912 199.491 284.13 199.698 284.26L205.772 287.765C205.903 287.834 206.049 287.87 206.197 287.87C206.344 287.87 206.49 287.834 206.621 287.765ZM191.272 296.626L196.519 293.6C196.748 293.47 196.726 293.252 196.519 293.11L190.445 289.605C190.315 289.541 190.171 289.507 190.026 289.507C189.88 289.507 189.737 289.541 189.607 289.605L184.36 292.631C184.142 292.762 184.153 292.98 184.36 293.121L190.434 296.626C190.564 296.691 190.708 296.724 190.853 296.724C190.999 296.724 191.142 296.691 191.272 296.626ZM221.97 278.904L227.228 275.867C227.445 275.737 227.435 275.53 227.228 275.388L221.154 271.883C221.024 271.816 220.88 271.781 220.734 271.781C220.589 271.781 220.445 271.816 220.315 271.883L215.068 274.92C214.84 275.051 214.851 275.258 215.068 275.399L221.143 278.904C221.271 278.969 221.413 279.003 221.556 279.003C221.7 279.003 221.842 278.969 221.97 278.904ZM214.35 283.335L219.597 280.298C219.825 280.178 219.815 279.96 219.597 279.819L213.523 276.314C213.393 276.247 213.249 276.212 213.104 276.212C212.958 276.212 212.814 276.247 212.684 276.314L207.427 279.351C207.209 279.481 207.22 279.699 207.427 279.83L213.501 283.335C213.625 283.395 213.761 283.426 213.898 283.426C214.036 283.426 214.172 283.395 214.296 283.335H214.35ZM229.699 274.474L234.957 271.437C235.174 271.306 235.163 271.089 234.957 270.958L228.828 267.453C228.698 267.386 228.555 267.351 228.409 267.351C228.263 267.351 228.119 267.386 227.99 267.453L222.743 270.49C222.514 270.61 222.525 270.827 222.743 270.969L228.817 274.474C228.945 274.539 229.087 274.573 229.231 274.573C229.374 274.573 229.516 274.539 229.644 274.474H229.699ZM264.751 208.909C264.88 208.976 265.024 209.011 265.17 209.011C265.316 209.011 265.459 208.976 265.589 208.909L270.847 205.872C271.064 205.742 271.054 205.535 270.847 205.393L269.225 204.457C269.095 204.39 268.952 204.355 268.806 204.355C268.66 204.355 268.516 204.39 268.387 204.457L263.14 207.483C262.922 207.614 262.933 207.832 263.14 207.973L264.751 208.909ZM226.988 233.293C227.119 233.358 227.262 233.391 227.407 233.391C227.553 233.391 227.696 233.358 227.826 233.293L233.073 230.267C233.302 230.136 233.291 229.919 233.073 229.777L227.01 226.272C226.88 226.205 226.737 226.17 226.591 226.17C226.445 226.17 226.301 226.205 226.172 226.272L220.914 229.298C220.696 229.429 220.707 229.647 220.914 229.788L226.988 233.293ZM242.337 224.422C242.467 224.488 242.61 224.523 242.756 224.523C242.902 224.523 243.046 224.488 243.175 224.422L248.422 221.406C248.651 221.286 248.64 221.069 248.422 220.927L242.348 217.422C242.218 217.358 242.074 217.324 241.929 217.324C241.784 217.324 241.64 217.358 241.51 217.422L236.252 220.459C236.034 220.59 236.045 220.807 236.252 220.938L242.337 224.422ZM217.616 238.704C217.746 238.768 217.889 238.801 218.035 238.801C218.18 238.801 218.324 238.768 218.454 238.704L223.701 235.677C223.929 235.547 223.908 235.329 223.701 235.187L217.637 231.682C217.507 231.618 217.364 231.585 217.218 231.585C217.073 231.585 216.93 231.618 216.799 231.682L211.541 234.708C211.324 234.839 211.335 235.057 211.541 235.198L217.616 238.704ZM234.663 228.906C234.793 228.971 234.936 229.004 235.082 229.004C235.227 229.004 235.371 228.971 235.501 228.906L240.748 225.88C240.976 225.75 240.965 225.532 240.748 225.39L234.674 221.885C234.543 221.821 234.4 221.787 234.254 221.787C234.109 221.787 233.966 221.821 233.835 221.885L228.578 224.922C228.36 225.053 228.371 225.271 228.578 225.401L234.663 228.906ZM202.267 247.608C202.395 247.672 202.537 247.706 202.68 247.706C202.824 247.706 202.966 247.672 203.094 247.608L208.352 244.571C208.57 244.44 208.559 244.223 208.352 244.092L202.256 240.565C202.126 240.501 201.982 240.467 201.837 240.467C201.691 240.467 201.548 240.501 201.418 240.565L196.171 243.569C195.942 243.7 195.964 243.918 196.171 244.059L202.267 247.608ZM209.887 243.178C210.016 243.244 210.16 243.279 210.306 243.279C210.452 243.279 210.595 243.244 210.725 243.178L215.972 240.151C216.201 240.021 216.179 239.803 215.972 239.661L209.898 236.156C209.769 236.092 209.628 236.059 209.484 236.059C209.34 236.059 209.199 236.092 209.07 236.156L203.813 239.183C203.595 239.313 203.606 239.531 203.813 239.672L209.887 243.178ZM249.348 217.814C249.477 217.881 249.621 217.916 249.767 217.916C249.912 217.916 250.056 217.881 250.186 217.814L255.433 214.777C255.661 214.657 255.65 214.439 255.433 214.298L253.865 213.351C253.735 213.286 253.591 213.253 253.446 213.253C253.301 213.253 253.157 213.286 253.027 213.351L247.78 216.377C247.551 216.508 247.562 216.725 247.78 216.867L249.348 217.814ZM272.371 204.522C272.5 204.589 272.644 204.624 272.79 204.624C272.936 204.624 273.079 204.589 273.209 204.522L278.467 201.485C278.684 201.355 278.674 201.137 278.467 201.006L276.856 200.07C276.725 200.006 276.582 199.972 276.437 199.972C276.291 199.972 276.148 200.006 276.017 200.07L270.76 203.107C270.542 203.238 270.553 203.456 270.76 203.586L272.371 204.522ZM285.129 211.892C285.259 211.956 285.403 211.99 285.548 211.99C285.693 211.99 285.837 211.956 285.967 211.892L291.225 208.866C291.443 208.735 291.432 208.517 291.225 208.376L285.151 204.871C285.02 204.806 284.877 204.773 284.731 204.773C284.586 204.773 284.443 204.806 284.312 204.871L279.098 207.908C278.87 208.039 278.88 208.256 279.098 208.398L285.129 211.892ZM304.32 231.367L309.567 228.329C309.796 228.199 309.785 227.992 309.567 227.851L303.493 224.345C303.363 224.278 303.22 224.244 303.074 224.244C302.928 224.244 302.784 224.278 302.655 224.345L297.408 227.317C297.19 227.448 297.201 227.655 297.408 227.796L303.482 231.301C303.618 231.383 303.773 231.428 303.931 231.432C304.089 231.435 304.246 231.398 304.386 231.323L304.32 231.367ZM257.131 213.351C257.26 213.418 257.404 213.452 257.55 213.452C257.696 213.452 257.839 213.418 257.969 213.351L263.216 210.314C263.444 210.194 263.434 209.976 263.216 209.835L261.594 208.899C261.464 208.834 261.32 208.801 261.175 208.801C261.029 208.801 260.886 208.834 260.756 208.899L255.509 211.925C255.28 212.055 255.302 212.273 255.509 212.415L257.131 213.351ZM194.592 251.995C194.722 252.062 194.866 252.097 195.012 252.097C195.157 252.097 195.301 252.062 195.431 251.995L200.688 248.958C200.906 248.827 200.895 248.61 200.688 248.479L194.614 244.974C194.485 244.907 194.341 244.872 194.195 244.872C194.049 244.872 193.906 244.907 193.776 244.974L188.551 248.011C188.322 248.131 188.344 248.348 188.551 248.49L194.592 251.995Z" fill="#455A64"/>
<path d="M228.632 298.074L280.458 268.149C281.335 267.704 282.305 267.472 283.289 267.472C284.272 267.472 285.242 267.704 286.119 268.149L315.837 285.305C317.404 286.209 317.404 287.668 315.837 288.571L264.01 318.496C263.133 318.941 262.163 319.174 261.18 319.174C260.196 319.174 259.226 318.941 258.35 318.496L228.632 301.34C227.075 300.436 227.075 298.967 228.632 298.074Z" fill="#263238"/>
<path d="M323.947 154.176H323.882L315.032 149.082C314.52 148.853 313.769 149.082 312.855 149.757C304.625 156.049 293.554 158.008 284.552 155.134C283.97 154.591 283.418 154.017 282.897 153.414L282.734 153.229C282.474 152.928 282.165 152.674 281.82 152.478L281.667 152.391L272.806 147.308C271.794 146.829 270.88 147.308 270.27 148.81C261.714 170.07 243.48 191.612 231.321 197.001C230.402 197.413 229.584 198.023 228.926 198.786C228.052 199.735 227.57 200.979 227.576 202.269L229.329 250.003C229.329 263.795 235.153 278.36 247.029 285.447L256.195 290.738L256.358 290.825C261.314 293.607 266.917 295.03 272.599 294.95C273.873 294.95 275.168 294.896 276.507 294.765C279.112 294.337 281.526 293.13 283.431 291.304C310.003 263.861 322.924 226.719 322.924 206.166L324.622 156.179C324.688 155.102 324.426 154.438 323.947 154.176Z" fill="#19C078"/>
<path d="M324.623 156.18L322.87 206.112C322.87 226.664 309.949 263.806 283.377 291.249C281.472 293.076 279.058 294.283 276.454 294.711C275.115 294.842 273.819 294.896 272.546 294.896C266.863 294.976 261.26 293.553 256.304 290.77L256.141 290.683L255.825 290.487C243.949 283.401 238.125 268.836 238.125 255.043L236.449 207.31C236.442 206.02 236.925 204.775 237.798 203.826C238.456 203.063 239.274 202.453 240.193 202.041C252.353 196.598 270.586 175.11 279.142 153.85C279.752 152.348 280.677 151.858 281.69 152.337L281.842 152.424C282.187 152.62 282.497 152.874 282.756 153.175L282.92 153.36C291.998 163.93 309.851 163.919 321.771 154.797C322.674 154.111 323.425 153.894 323.948 154.122H324.013C324.427 154.438 324.688 155.102 324.623 156.18Z" fill="#19C078"/>
<path opacity="0.4" d="M323.893 154.111C323.381 153.883 322.63 154.111 321.716 154.786C310.493 163.375 294.001 163.887 284.541 155.069C293.587 157.954 304.636 155.994 312.844 149.692C313.747 149.006 314.498 148.788 315.021 149.017L323.893 154.111Z" fill="white"/>
<path opacity="0.4" d="M281.635 152.326C280.623 151.847 279.697 152.326 279.088 153.839C270.532 175.099 252.298 196.642 240.139 202.03C239.219 202.443 238.402 203.052 237.744 203.815C237.516 204.076 237.312 204.356 237.134 204.654L228.295 199.548C228.471 199.256 228.672 198.979 228.894 198.721C229.016 198.579 229.147 198.444 229.286 198.318L229.438 198.166L229.591 198.024C230.094 197.576 230.663 197.209 231.278 196.936C243.437 191.547 261.671 170.004 270.227 148.745C270.836 147.242 271.751 146.763 272.763 147.242L281.635 152.326Z" fill="white"/>
<path d="M229.297 198.296C229.342 198.244 229.393 198.196 229.449 198.155L229.297 198.307C229.297 198.307 229.286 198.296 229.297 198.296Z" fill="#19C078"/>
<path opacity="0.15" d="M229.448 198.111L229.295 198.264C229.34 198.207 229.391 198.156 229.448 198.111Z" fill="black"/>
<path opacity="0.15" d="M256.325 290.759L256.162 290.683L246.996 285.382C235.12 278.295 229.296 263.73 229.296 249.938L227.543 202.204C227.524 201.264 227.786 200.339 228.295 199.548L237.134 204.653C236.633 205.444 236.375 206.363 236.394 207.299L238.146 255.033C238.146 268.825 243.97 283.335 255.846 290.476L256.162 290.672L256.325 290.759Z" fill="black"/>
<path d="M287.611 246.846L273.46 255.011L275.637 229.418C273.949 228.526 272.861 226.327 272.861 223.159C272.861 217.531 276.29 210.978 280.481 208.54C284.672 206.101 288.101 208.692 288.101 214.32C288.016 217.66 287.063 220.92 285.336 223.78L287.611 246.846Z" fill="#455A64"/>
<path d="M287.59 246.846L274.778 239.444L273.45 255.011L287.59 246.846Z" fill="#37474F"/>
<path d="M280.524 208.54C277.748 210.14 275.343 213.493 273.993 217.194L285.434 223.78C287.161 220.92 288.114 217.66 288.199 214.32C288.166 208.692 284.748 206.101 280.524 208.54Z" fill="#37474F"/>
<path d="M103.559 395.512V399.758C103.559 404.765 106.824 409.762 113.443 413.583C123.392 419.32 138.001 420.724 150.247 417.796L161.612 424.327L170.321 422.346L176.275 425.797L176.602 432.992L179.867 434.853L187.934 435.561L193.725 438.827V442.887L201.007 447.078H219.513L226.142 443.257V438.968L166.99 409.109C169.499 406.652 170.965 403.322 171.083 399.812V395.458C170.19 391.3 166.728 389.155 161.209 385.966C148.027 378.346 126.669 378.346 113.486 385.966C107.521 389.449 104.157 391.038 103.559 395.512ZM121.672 390.538C123.767 389.475 126.083 388.922 128.432 388.922C130.781 388.922 133.097 389.475 135.192 390.538C138.926 392.715 138.926 396.187 135.192 398.343C133.097 399.405 130.781 399.959 128.432 399.959C126.083 399.959 123.767 399.405 121.672 398.343C117.939 396.231 117.939 392.693 121.672 390.538Z" fill="#FFD261"/>
<path opacity="0.1" d="M103.559 395.512V399.758C103.559 404.765 106.824 409.762 113.443 413.583C123.392 419.32 138.001 420.724 150.247 417.796L161.612 424.327L170.321 422.346L176.275 425.797L176.602 432.992L179.867 434.853L187.934 435.561L193.725 438.827V442.887L201.007 447.078H219.513L226.142 443.257V438.968L166.99 409.109C169.499 406.652 170.965 403.322 171.083 399.812V395.458C170.19 391.3 166.728 389.155 161.209 385.966C148.027 378.346 126.669 378.346 113.486 385.966C107.521 389.449 104.157 391.038 103.559 395.512ZM121.672 390.538C123.767 389.475 126.083 388.922 128.432 388.922C130.781 388.922 133.097 389.475 135.192 390.538C138.926 392.715 138.926 396.187 135.192 398.343C133.097 399.405 130.781 399.959 128.432 399.959C126.083 399.959 123.767 399.405 121.672 398.343C117.939 396.231 117.939 392.693 121.672 390.538Z" fill="black"/>
<path d="M113.443 409.294C123.393 415.041 138.001 416.446 150.248 413.507L161.613 420.038L170.321 418.068L176.276 421.507L176.602 428.714L179.868 430.564L187.934 431.272L194.226 434.777L193.725 438.565L201.008 442.767H219.514L226.143 438.946L166.99 404.787C173.957 397.396 172.041 387.958 161.21 381.709C148.027 374.089 126.669 374.089 113.487 381.709C100.304 389.329 100.261 401.674 113.443 409.294ZM121.673 386.249C123.768 385.186 126.084 384.633 128.433 384.633C130.782 384.633 133.098 385.186 135.193 386.249C138.927 388.426 138.927 391.898 135.193 394.054C133.098 395.116 130.782 395.67 128.433 395.67C126.084 395.67 123.768 395.116 121.673 394.054C117.939 391.877 117.939 388.393 121.673 386.238V386.249Z" fill="#FFD261"/>
<path opacity="0.3" d="M137.306 411.253C128.934 411.253 121.129 409.403 115.316 406.05C110.222 403.111 107.294 399.268 107.294 395.512C107.294 391.757 110.222 387.892 115.316 384.964C121.129 381.611 128.934 379.761 137.306 379.761C145.677 379.761 153.482 381.611 159.295 384.964C164.389 387.914 167.317 391.746 167.317 395.512C167.317 399.279 164.389 403.132 159.295 406.05C153.482 409.403 145.677 411.253 137.306 411.253ZM137.306 381.263C129.196 381.263 121.652 383.037 116.057 386.26C111.441 388.927 108.796 392.301 108.796 395.512C108.796 398.724 111.441 402.044 116.057 404.754C121.652 408.02 129.196 409.762 137.306 409.762C145.415 409.762 152.959 407.976 158.554 404.754C163.17 402.087 165.815 398.713 165.815 395.512C165.815 392.312 163.17 388.981 158.554 386.26C152.959 383.037 145.415 381.263 137.306 381.263Z" fill="black"/>
<path opacity="0.1" d="M125.156 413.648V418.002C133.429 419.801 141.999 419.742 150.247 417.828V413.539C141.994 415.426 133.425 415.463 125.156 413.648Z" fill="black"/>
<path opacity="0.1" d="M161.612 420.06V424.36L170.343 422.378V418.089L161.612 420.06Z" fill="black"/>
<path opacity="0.1" d="M176.296 421.529V425.829L176.623 433.025V428.736L176.296 421.529Z" fill="black"/>
<path opacity="0.1" d="M179.834 430.586V434.886L187.9 435.594V431.294L179.834 430.586Z" fill="black"/>
<path opacity="0.1" d="M219.468 442.789H200.973V447.089H219.468V442.789Z" fill="black"/>
<path opacity="0.15" d="M226.1 438.957V443.257L219.47 447.078V442.789L222.366 441.112V442.963L223.977 442.038V440.165L226.1 438.957Z" fill="black"/>
<path d="M223.977 440.166L222.365 441.113V442.963L223.977 442.038V440.166Z" fill="#FFD261"/>
<path opacity="0.15" d="M223.976 440.166V442.038L163.31 407.008L164.91 406.072L223.976 440.166Z" fill="black"/>
<path opacity="0.15" d="M164.91 406.072V407.944L163.31 407.008L164.91 406.072Z" fill="black"/>
<path d="M428.615 279.275C429.388 250.972 427.113 244.125 419.558 238.932L416.641 255.359C416.641 255.359 420.081 274.724 419.711 281.169C419.384 286.84 418.829 293.927 417.534 298.499C417.286 299.309 416.752 300.002 416.031 300.447C414.463 301.555 413.066 302.886 411.884 304.399C410.795 305.585 409.794 305.879 409.935 306.26C410.156 306.675 410.525 306.992 410.969 307.147C411.413 307.302 411.899 307.285 412.33 307.098C413.296 306.722 414.211 306.225 415.052 305.618C414.39 307.359 413.449 308.981 412.265 310.419C409.565 313.684 409.445 315.753 414.888 315.807C418.306 315.807 421.028 313.728 423.597 306.217C424.596 303.465 425.396 300.646 425.992 297.78C427.244 290.345 428.495 283.836 428.615 279.275Z" fill="#EBB376"/>
<path d="M413.212 236.777C415.532 236.366 417.923 236.719 420.025 237.783C422.127 238.847 423.827 240.564 424.87 242.677C428.038 248.327 428.811 258.058 429.225 267.714C429.225 267.714 422.944 272.972 415.411 270.392L413.212 236.777Z" fill="#263238"/>
<path opacity="0.5" d="M413.212 236.777C415.532 236.366 417.923 236.719 420.025 237.783C422.127 238.847 423.827 240.564 424.87 242.677C428.038 248.327 428.811 258.058 429.225 267.714C429.225 267.714 422.944 272.972 415.411 270.392L413.212 236.777Z" fill="black"/>
<path d="M423.815 392.725C424.381 392.943 424.522 394.032 424.609 396.198C424.675 397.831 425.034 400.694 423.107 401.271C421.18 401.848 418.372 401.543 417.142 399.997C415.653 397.926 414.062 395.932 412.374 394.021C410.48 391.985 408.422 390.069 407.649 387.206C406.963 384.626 407.54 383.505 409.304 382.754C411.731 381.666 415.541 385.095 417.446 385.628C419.079 386.085 423.238 392.508 423.815 392.725Z" fill="#263238"/>
<path d="M423.814 390.711V393.378C422.814 394.015 421.66 394.368 420.475 394.399C419.29 394.429 418.118 394.137 417.087 393.553C416.967 393.302 416.39 389.753 416.39 389.753L423.814 390.711Z" fill="#EBB376"/>
<path d="M402.262 408.052C402.73 409.482 403.122 410.935 403.437 412.407C403.764 414.018 404.232 416.761 403.677 417.915C403.121 419.069 400.912 419.907 397.504 419.885C395.327 419.885 391.866 421.365 389.514 422.683C387.163 424 382.025 424.577 379.445 424.272C376.419 423.913 373.284 422.16 372.794 420.908C372.304 419.656 372.946 418.35 380.098 415.302C380.164 415.302 390.026 412.036 393.477 408.259L402.262 408.052Z" fill="#263238"/>
<path d="M402.26 405.178V408.281C402.26 409.369 400.943 411.089 397.492 410.97C395.075 410.883 393.377 410.229 393.475 408.237V405.353L402.26 405.178Z" fill="#EBB376"/>
<path d="M425.547 355.409C424.955 350.698 423.901 346.056 422.401 341.552C422.401 341.552 423.348 329.577 423.805 318.267C424.295 306.021 423.805 290.639 424.012 287.58C424.012 287.58 384.507 279.59 383.8 293.742C383.092 307.893 385.367 343.914 385.836 350.13C386.304 356.345 387.37 361.854 388.655 371.901C389.939 381.949 393.477 405.331 393.477 405.331C394.843 406.026 396.359 406.373 397.891 406.343C399.424 406.313 400.925 405.905 402.262 405.157C402.262 405.157 405.049 376.854 404.755 369.68C404.529 364.367 403.614 359.105 402.033 354.027C402.033 354.027 402.785 342.357 403.449 332.255C404.113 322.153 404.809 317.222 404.962 312.813L405.811 312.389C405.811 312.389 406.682 329.904 407.15 336.12C407.618 342.335 408.597 348.29 410.415 359.84C411.983 369.865 416.631 391.06 416.631 391.06C421.138 393.498 423.837 390.733 423.837 390.733C423.837 390.733 426.755 364.107 425.547 355.409Z" fill="#37474F"/>
<path d="M404.961 312.791C404.961 312.791 414.54 308.056 419.33 303.811C419.33 303.811 414.878 310.081 409.032 312.868C409.032 312.868 406.953 334.639 406.964 334.182L405.755 312.759L404.961 312.791Z" fill="#263238"/>
<path d="M396.427 232.303L398.767 245.17L410.393 244.31L407.955 229.734L396.427 232.303Z" fill="#EBB376"/>
<path d="M422.66 243.374C421.517 239.879 417.076 236.069 412.634 236.842C406.041 237.98 399.545 239.621 393.203 241.752C389.143 243.199 385.431 246.715 385.093 260.094C385.093 260.094 383.733 291.271 383.711 297.301C392.197 300.631 401.44 301.543 410.414 299.936C422.627 297.269 424.108 292.196 424.108 292.196C424.108 292.196 424.26 269.771 423.89 260.094C423.563 251.864 423.455 245.779 422.66 243.374Z" fill="#263238"/>
<path d="M387.467 216.616C387.467 216.616 384.517 221.319 384.877 221.765C385.236 222.212 387.489 222.571 387.489 222.571L387.467 216.616Z" fill="#9A4A4D"/>
<path d="M395.642 203.652C389.502 205.089 387.782 207.843 387.423 217.672C387.042 227.927 388.163 231.127 389.535 232.477C390.471 233.391 395.522 233.446 398.058 232.684C401.226 231.737 408.378 229.015 411.633 223.79C415.465 217.629 416.325 209.388 412.003 206.112C405.907 201.496 398.146 203.064 395.642 203.652Z" fill="#EBB376"/>
<path d="M387.489 206.21C388.899 208.264 390.888 209.852 393.204 210.771C394.38 212.11 393.737 217.302 395.806 218.173C395.806 218.173 396.698 214.363 399.899 214.777C403.099 215.19 403.654 219.262 401.684 221.798C399.714 224.334 397.809 223.42 397.809 223.42C397.809 223.42 398.026 228.863 400.497 231.846C400.497 231.846 403.241 232.673 408.248 231.486C411.318 230.757 415.596 226.805 417.338 222.68C421.028 213.971 421.115 206.166 415.552 203.956C414.866 199.983 411.688 198.274 408.096 197.534C400.356 195.934 395.37 200.799 389.416 200.342C386.008 200.103 385.377 202.585 387.489 206.21Z" fill="#263238"/>
<path d="M415.672 205.284L419.319 203.031C419.202 202.735 419.021 202.468 418.79 202.25C418.558 202.031 418.282 201.866 417.98 201.766C417.678 201.666 417.357 201.633 417.041 201.67C416.725 201.707 416.421 201.813 416.15 201.981C415.88 202.148 415.649 202.372 415.474 202.639C415.3 202.905 415.186 203.206 415.14 203.521C415.095 203.836 415.119 204.157 415.211 204.462C415.302 204.766 415.46 205.047 415.672 205.284Z" fill="#263238"/>
<path d="M344.044 264.916C345.949 265.765 368.472 282.399 371.977 280.461C375.482 278.523 393.498 257.481 393.498 257.481C395.02 255.13 395.83 252.39 395.83 249.589C395.83 246.789 395.02 244.048 393.498 241.697C393.498 241.697 387.728 242.786 384.702 247.336C381.676 251.886 368.635 268.269 368.635 268.269C365.413 266.658 362.198 265.025 358.99 263.37C356.356 261.999 353.711 260.638 351.131 259.169C350.405 258.832 349.722 258.412 349.095 257.917C347.821 256.654 348.006 253.562 348.072 251.951C348.072 251.178 348.072 250.406 348.181 249.633C348.289 248.686 348.475 246.367 346.765 247.107C346.442 247.262 346.161 247.493 345.949 247.782C345.687 248.136 345.481 248.529 345.339 248.947C345.024 249.948 345.122 251.048 344.828 252.06C344.792 252.209 344.721 252.347 344.621 252.463C344.469 252.581 344.279 252.639 344.088 252.626C341.606 252.55 339.254 249.067 338.111 247.183C337.716 246.285 337.06 245.527 336.228 245.006C334.878 244.364 333.245 245.278 332.364 246.498C331.302 248.1 330.868 250.038 331.144 251.94C331.374 254.544 332.533 256.979 334.41 258.798C337.246 261.376 340.505 263.445 344.044 264.916Z" fill="#EBB376"/>
<path d="M395.38 241.022C392.898 241.305 388.772 241.49 384.723 246.073C379.955 251.451 373.739 260.159 373.739 260.159C374.374 262.735 375.739 265.072 377.67 266.891C379.601 268.71 382.016 269.933 384.625 270.414C384.625 270.414 393.148 261.705 395.51 256.872C397.873 252.039 398.265 244.266 395.38 241.022Z" fill="#263238"/>
<path opacity="0.5" d="M395.38 241.022C392.898 241.305 388.772 241.49 384.723 246.073C379.955 251.451 373.739 260.159 373.739 260.159C374.374 262.735 375.739 265.072 377.67 266.891C379.601 268.71 382.016 269.933 384.625 270.414C384.625 270.414 393.148 261.705 395.51 256.872C397.873 252.039 398.265 244.266 395.38 241.022Z" fill="black"/>
</svg>
